<svg width="117" height="40" fill="none" xmlns="http://www.w3.org/2000/svg"><path d="M31.273 20.997a11.271 11.271 0 0 1-5.29 5.183 11.185 11.185 0 0 1-7.348.763 11.235 11.235 0 0 1-6.232-3.987 11.344 11.344 0 0 1-2.427-7.015c0-2.546.855-5.018 2.427-7.015a11.235 11.235 0 0 1 6.232-3.986 11.185 11.185 0 0 1 7.347.763 11.27 11.27 0 0 1 5.29 5.183l4.126-2.076a15.89 15.89 0 0 0-7.459-7.308A15.77 15.77 0 0 0 17.58.426a15.84 15.84 0 0 0-8.786 5.621 15.994 15.994 0 0 0-3.421 9.891c0 3.59 1.205 7.075 3.42 9.89a15.84 15.84 0 0 0 8.788 5.622 15.77 15.77 0 0 0 10.36-1.076 15.89 15.89 0 0 0 7.458-7.308l-4.126-2.07Z" fill="#fff"/><path d="M39.533 25.145a20.518 20.518 0 0 1-7.474 8.269 20.364 20.364 0 0 1-10.67 3.116 20.36 20.36 0 0 1-10.716-2.956 20.513 20.513 0 0 1-7.596-8.155L0 27.019a24 24 0 0 0 8.885 9.527 23.822 23.822 0 0 0 12.526 3.453 23.826 23.826 0 0 0 12.474-3.637 24.006 24.006 0 0 0 8.745-9.656l-3.097-1.56Z" fill="#33C369"/><path d="M59.355 18.749a4.901 4.901 0 0 1-1.827 1.855 4.866 4.866 0 0 1-2.514.652c-3.087 0-5.326-2.244-5.326-5.335 0-3.09 2.24-5.338 5.326-5.338a4.859 4.859 0 0 1 2.486.636 4.893 4.893 0 0 1 1.82 1.817l.189.337 1.541-.89-.19-.337a6.698 6.698 0 0 0-2.482-2.44 6.651 6.651 0 0 0-3.364-.86c-4.022 0-7.072 3.034-7.072 7.058s3.04 7.054 7.072 7.054a6.638 6.638 0 0 0 3.398-.878 6.684 6.684 0 0 0 2.484-2.492l.185-.337-1.539-.89-.188.388ZM65.074 13.666v-.906h-1.676v10.013h1.676v-5.524c0-2.74 2.051-2.956 2.681-2.956h.386v-1.661h-.386a3.575 3.575 0 0 0-2.681 1.034ZM74.29 12.558c-2.98 0-5.145 2.19-5.145 5.223 0 3.034 2.193 5.207 5.216 5.207 1.86 0 3.479-.849 4.334-2.275l.2-.337-1.484-.91-.191.337c-.503.927-1.566 1.477-2.84 1.477-1.749 0-3.086-1.059-3.438-2.676h8.259v-.357a1.932 1.932 0 0 1 0-.196v-.25c0-2.54-1.713-5.243-4.91-5.243Zm0 1.665a3.137 3.137 0 0 1 2.082.77 3.17 3.17 0 0 1 1.059 1.96h-6.499a3.303 3.303 0 0 1 1.17-2 3.27 3.27 0 0 1 2.188-.73ZM89.785 14.074a4.73 4.73 0 0 0-3.546-1.517 5.169 5.169 0 0 0-3.578 1.572 5.225 5.225 0 0 0-1.472 3.637c0 1.36.528 2.664 1.472 3.638a5.168 5.168 0 0 0 3.578 1.571 4.705 4.705 0 0 0 3.563-1.517v1.315h1.693V9.066h-1.693l-.017 5.008ZM86.28 21.31a3.512 3.512 0 0 1-1.966-.589 3.542 3.542 0 0 1-1.308-1.59 3.565 3.565 0 0 1 .76-3.872 3.508 3.508 0 0 1 3.85-.767 3.53 3.53 0 0 1 1.582 1.313 3.56 3.56 0 0 1 .588 1.976 3.516 3.516 0 0 1-1.018 2.503 3.478 3.478 0 0 1-2.488 1.026ZM99.147 12.558c-2.98 0-5.142 2.19-5.142 5.21s2.196 5.207 5.216 5.207c1.86 0 3.482-.85 4.337-2.275l.201-.337-1.488-.896-.191.337c-.503.927-1.566 1.476-2.84 1.476-1.752 0-3.086-1.058-3.441-2.676h8.255V17.8c.017-2.54-1.71-5.243-4.907-5.243Zm0 1.665a3.134 3.134 0 0 1 2.082.77c.578.502.954 1.198 1.058 1.96h-6.495a3.3 3.3 0 0 1 1.168-2 3.267 3.267 0 0 1 2.187-.73ZM101.59 7.563h-2.068l-1.954 3.12h1.797l2.225-3.12ZM111.135 12.557a5.164 5.164 0 0 0-2.873.886 5.208 5.208 0 0 0-1.901 2.34 5.235 5.235 0 0 0 1.128 5.67 5.172 5.172 0 0 0 2.65 1.425 5.153 5.153 0 0 0 2.99-.294 5.183 5.183 0 0 0 2.326-1.913c.57-.855.876-1.86.879-2.89a5.178 5.178 0 0 0-1.508-3.71 5.14 5.14 0 0 0-3.691-1.514Zm0 8.763a3.508 3.508 0 0 1-1.969-.58 3.562 3.562 0 0 1-.572-5.461 3.51 3.51 0 0 1 3.85-.781 3.536 3.536 0 0 1 1.587 1.308c.388.585.595 1.272.593 1.975a3.492 3.492 0 0 1-1.011 2.498 3.462 3.462 0 0 1-2.478 1.03v.01Z" fill="#fff"/></svg>